# xmcd
#
# Track frame offsets:
#	183
#	15863
#	54205
#
# Disc length: 993 seconds
#
# Revision: 0
# Processed by: cddbd v1.4PL0 Copyright (c) Steve Scherf et al.
# Submitted via: EasyCDDAExtractor 4.6.9.1
#
DISCID=1103df03
DTITLE=U.K. Baseheads - Is There Anybody Out There?(Just Get Up And Dance)
DYEAR=1900
DGENRE=
TTITLE0=Is There Anybody Out There?(Just Get Up And Dance)(Edit)
TTITLE1=Is There Anybody Out There?(Just Get Up And Dance)(Extended)
TTITLE2=Non Verbal Communication(Extended)
EXTD=
EXTT0=
EXTT1=
EXTT2=
PLAYORDER=
